<!DOCTYPE svg PUBLIC "-//W3C//DTD SVG 1.1//EN" "http://www.w3.org/Graphics/SVG/1.1/DTD/svg11.dtd">
<!-- Uploaded to: SVG Repo, www.svgrepo.com, Transformed by: SVG Repo Mixer Tools -->
<svg version="1.1" id="Layer_1" xmlns="http://www.w3.org/2000/svg" xmlns:xlink="http://www.w3.org/1999/xlink" viewBox="0 0 512 512" xml:space="preserve" width="800px" height="800px" fill="#000000">
<g id="SVGRepo_bgCarrier" stroke-width="0"/>
<g id="SVGRepo_tracerCarrier" stroke-linecap="round" stroke-linejoin="round"/>
<g id="SVGRepo_iconCarrier"> <rect x="261.525" y="86.644" style="fill:#FFBCAB;" width="27.887" height="41.542"/> <rect x="261.525" y="86.644" style="fill:#FF9478;" width="27.887" height="23.013"/> <g> <path style="fill:#FFBCAB;" d="M304.874,128.191l51.256,56.768l49.608-32.96l2.752,4.488c6.431,10.488,3.406,24.185-6.844,30.989 l-35.116,23.305c-8.088,5.294-18.815,3.982-25.392-3.103l-39.741-43.727L304.874,128.191z"/> <path style="fill:#FFBCAB;" d="M239.458,412.248l29.01-131.712l-46.842,17.433l-14.229,85.783 c-0.231,1.394-1.437,2.417-2.851,2.417h-77.696l-8.692,28.574l109.656,6.323C233.335,421.384,238.268,417.647,239.458,412.248z"/> </g> <path style="fill:#9CE0B8;" d="M226.428,303.654c-17.365-17.365-17.365-45.522,0-62.887l3.543-32.638l7.265-61.822l16.209-27.9 l41.941,4.19c7.215,0.721,12.528,7.213,11.807,14.429l-15.177,128.858"/> <path style="fill:#FFBCAB;" d="M251.866,145.832l-62.709,2.025l-6.876,59.162l-5.157-0.79c-12.187-1.867-20.71-13.047-19.28-25.294 l4.881-41.813c1.182-9.594,9.112-16.937,18.768-17.383l69.258-3.381c7.675-0.374,14.167,5.614,14.411,13.295l0,0 C265.404,139.24,259.453,145.586,251.866,145.832z"/> <path style="fill:#9CE0B8;" d="M91.981,455.497v-69.401h35.981l-17.137,60.67c-1.864,6.378-7.711,8.732-14.355,8.732h-4.488V455.497 z"/> <path style="fill:#9CE0B8;" d="M221.625,297.969l-7.519,45.333c10.873,0.058,29.032,0.141,40.512,0.114l13.849-62.88 L221.625,297.969z"/> <path style="fill:#781900;" d="M311,19.697c-4.482-7.24-12.496-12.09-21.59-12.09h-24.335c-13.956,0-25.375,11.419-25.375,25.375 v20.547C282.148,51.975,303.151,30.4,311,19.697z"/> <path style="fill:#FFBCAB;" d="M239.701,53.528v20.748c0,13.956,11.419,25.375,25.375,25.375h24.335 c13.956,0,25.375-11.419,25.375-25.375V32.98c0-4.862-1.389-9.414-3.785-13.285C303.151,30.4,282.148,51.975,239.701,53.528z"/> <path style="fill:#9CE0B8;" d="M365.957,504.394h-69.402v-35.981l59.115,17.275c6.097,1.782,10.288,7.372,10.288,13.725 L365.957,504.394L365.957,504.394z"/> <path style="fill:#FFBCAB;" d="M323.104,476.813l-26.549-8.401v-97.209l2.36,3.852l-55.464-94.704l48.566-14.466l38.405,91.667 c0.671,1.603,0.957,3.342,0.834,5.077L323.104,476.813z"/> <polygon style="fill:#9CE0B8;" points="292.017,265.884 243.45,280.35 278.599,340.365 312.667,315.175 "/> <g> <path style="fill:#315591;" d="M234.322,171.105c0.04-0.339-3.587,30.524-3.587,30.524l67.625,10.391l3.748-31.822L234.322,171.105 z"/> </g> <g style="opacity:0.46;"> <path style="fill:#24763D;" d="M296.582,496.764v7.63h69.402v-4.982c0-0.902-0.093-1.786-0.256-2.648H296.582z"/> </g> <g style="opacity:0.46;"> <path style="fill:#24763D;" d="M99.611,386.095h-7.63v69.402h4.982c0.902,0,1.786-0.093,2.648-0.256V386.095z"/> </g> <path d="M426.501,171.307l-14.279-23.284c-1.079-1.76-2.828-3.006-4.845-3.451c-2.017-0.445-4.127-0.051-5.847,1.092l-44.149,29.332 l-46.658-51.675c-2.703-3.626-6.56-6.361-11.101-7.619V98.938c10.812-4.99,18.338-15.927,18.338-28.596V31.482 C317.961,14.123,303.837,0,286.477,0h-22.899c-17.36,0-31.482,14.123-31.482,31.482V70.34c0,13.064,7.999,24.292,19.355,29.051 v11.37c-0.357,0-0.711-0.017-1.07,0l-69.237,3.38c-13.404,0.618-24.325,10.732-25.973,24.098L147.728,202 c-0.475,4.066,2.355,7.78,6.402,8.4l26.999,4.136c0.383,0.059,0.769,0.087,1.152,0.087c1.656,0,3.279-0.542,4.612-1.558 c1.643-1.252,2.705-3.118,2.943-5.17l6.119-52.649l32.697-1.057l-6.242,53.117l-3.267,30.089 c-8.627,9.573-13.345,21.83-13.345,34.814c0,9.866,2.738,19.307,7.833,27.476l-13.083,78.877H128.98 c-0.335-0.046-0.673-0.074-1.016-0.074H91.981c-4.2,0-7.606,3.405-7.606,7.606v59.262c0,4.2,3.405,7.606,7.606,7.606h15.699 c3.251,0,6.143-2.067,7.196-5.142l7.033-20.549c1.329,1.139,3.053,1.83,4.942,1.83h109.161l0.254,0.039 c0.381,0.057,0.762,0.085,1.137,0.085c3.515,0,6.642-2.441,7.42-5.971l20.089-91.21l7.132,12.177c0.006,0.01,0.012,0.02,0.018,0.03 l16.888,28.837v95.325v35.981c0,4.2,3.405,7.606,7.606,7.606h59.262c4.2,0,7.606-3.405,7.606-7.606v-15.699 c0-3.251-2.067-6.143-5.142-7.196l-21.431-7.335c1.613-1.394,2.639-3.452,2.639-5.752v-93.358c0-0.074-0.001-0.148-0.003-0.221 l-0.438-15.064c-0.027-0.934-0.227-1.856-0.588-2.718l-38.653-92.263l9.468-80.382l26.292,28.445 c5.365,5.78,12.678,8.787,20.087,8.787c5.196,0,10.439-1.481,15.086-4.521l53.486-35.497 C427.635,179.355,428.642,174.797,426.501,171.307z M266.663,101.824h17.749v11.873l-17.749-2.11V101.824z M263.579,15.211h22.899 c3.1,0,5.989,0.887,8.458,2.397c-5.956,7.87-20.696,22.917-47.628,25.359V31.482C247.307,22.511,254.606,15.211,263.579,15.211z M247.307,58.214c28.341-2.119,45.96-15.772,55.441-26.229V70.34c0,7.701-5.384,14.155-12.581,15.833h-30.28 c-7.197-1.678-12.581-8.132-12.581-15.833L247.307,58.214L247.307,58.214z M188.911,140.255c-3.765,0.122-6.875,2.981-7.31,6.723 l-5.965,51.327l-11.949-1.83l6.587-56.423c0.731-5.934,5.598-10.44,11.591-10.716l69.257-3.381c1.668-0.076,3.244,0.495,4.465,1.621 c1.221,1.126,1.922,2.66,1.974,4.319c0.108,3.383-2.558,6.226-5.942,6.335L188.911,140.255z M102.245,437.75h-2.658V393.7h17.733 L102.245,437.75z M231.308,413.89h-96.851v-20.116h72.539c3.72,0,6.895-2.691,7.503-6.361l6.055-36.503 c3.752,0.029,8.694,0.065,13.651,0.088c4.106,0.02,7.487,0.037,10.288,0.037c0.227,0,0.44,0,0.66-0.001L231.308,413.89z M247.177,341.841c0.014-0.077,0.033-0.152,0.051-0.228L247.177,341.841z M268.543,280.194c-4.1-0.908-8.16,1.689-9.064,5.791 l-10.973,49.821c-5.791,0.027-15.455-0.012-25.432-0.087l4.062-24.494c1.704-0.158,3.365-0.889,4.67-2.193 c2.97-2.97,2.97-7.786,0-10.755c-6.963-6.963-10.796-16.219-10.796-26.065s3.834-19.102,10.796-26.065 c1.226-1.225,1.996-2.833,2.183-4.557l3.536-32.572l6.501-55.322l8.084-0.262c11.762-0.38,21.027-10.259,20.654-22.022 c-0.038-1.18-0.193-2.336-0.416-3.471l22.281,2.226c1.622,0.162,3.009,1.011,3.913,2.226c0.08,0.121,0.159,0.242,0.247,0.359 c0.631,1,0.954,2.204,0.841,3.467l-15.168,128.776c-0.002,0.016-0.001,0.033-0.003,0.05c-0.02,0.178-0.028,0.359-0.037,0.54 c-0.003,0.073-0.01,0.146-0.011,0.219c-0.002,0.164,0.008,0.329,0.017,0.493c0.005,0.09,0.004,0.181,0.012,0.27 c0.011,0.121,0.032,0.241,0.049,0.362c0.018,0.132,0.032,0.264,0.058,0.393c0.015,0.078,0.038,0.155,0.056,0.233 c0.039,0.171,0.077,0.342,0.127,0.508c0.018,0.061,0.043,0.122,0.063,0.183c0.059,0.181,0.121,0.36,0.193,0.534 c0.006,0.014,0.009,0.028,0.015,0.043l18.344,43.786l-22.463,16.609l-11.155-19.047l4.606-20.913 C275.238,285.155,272.645,281.097,268.543,280.194z M348.21,496.789h-44.05v-17.733l44.05,15.075V496.789z M324.276,375.164v85.642 H304.16v-80.254c2.497-2.379,3.135-6.237,1.316-9.342l-16.862-28.792l20.783-15.367l14.484,34.572L324.276,375.164z M362.367,204.416c-5.003,3.275-11.586,2.47-15.642-1.9l-35.111-37.986l1.826-15.502l37.046,41.029 c2.525,2.797,6.716,3.322,9.854,1.238l43.039-28.595l6.32,10.305L362.367,204.416z"/> </g>
</svg>